<svg width="498" height="498" viewBox="0 0 498 498" fill="none" xmlns="http://www.w3.org/2000/svg">
    <path
        d="M318.321 69.3218C341.917 78.4252 363.489 92.0869 381.804 109.527C400.12 126.967 414.822 147.844 425.069 170.966C435.317 194.088 440.91 219.001 441.529 244.285C442.149 269.568 437.782 294.726 428.679 318.321C419.575 341.917 405.913 363.489 388.473 381.805C371.033 400.121 350.156 414.822 327.035 425.07C303.913 435.317 278.999 440.91 253.716 441.53C228.432 442.149 203.275 437.782 179.679 428.679C156.083 419.575 134.512 405.914 116.196 388.474C97.8799 371.033 83.1784 350.157 72.9308 327.035C62.6831 303.913 57.09 278.999 56.4708 253.716C55.8515 228.433 60.2182 203.275 69.3216 179.679C78.425 156.084 92.0867 134.512 109.527 116.196C126.967 97.8801 147.844 83.1786 170.966 72.931C194.087 62.6834 219.001 57.0903 244.284 56.471C269.568 55.8517 294.725 60.2184 318.321 69.3218L318.321 69.3218Z"
        stroke="#D9D9D9" stroke-width="40" />
    <path
        d="M318.321 69.3218C356.266 83.961 388.601 110.237 410.694 144.383C432.787 178.53 443.503 218.794 441.306 259.405C439.109 300.016 424.111 338.889 398.463 370.452C372.815 402.016 337.833 424.649 298.531 435.109"
        stroke="url(#paint0_linear_117_2936)" stroke-width="40" stroke-linecap="round" />
    <defs>
        <linearGradient id="paint0_linear_117_2936" x1="209.734" y1="440.274" x2="345.256"
            y2="79.3372" gradientUnits="userSpaceOnUse">
            <stop stop-color="#00B2EE" />
            <stop offset="0.5" stop-color="#00BD8B" />
            <stop offset="1" stop-color="#71C72F" />
        </linearGradient>
    </defs>
</svg>